<svg xmlns="http://www.w3.org/2000/svg" height="216.027" width="140.667" fill="#fff"><path d="M0 129.2V91.76h57.354v-.4L0 49.098V4.02l65.403 51.925L140.47-.001V47.7l-63.8 43.67v.4h63.8v37.44H0m.02 54.717h26.44v2.435H.02v-2.435m5.328 23.408h-.03l-1.544 4.396H6.9zm-1.177-2.137h2.412l4.185 10.656H8.402l-.917-2.443h-4.32l-.932 2.443H.02l4.153-10.656m8.35 0h2.138v4.58l3.85-4.58h2.625l-4.383 5.022 4.567 5.633h-2.794l-3.832-4.946h-.03v4.946h-2.138v-10.656m14.793 2.138h-.03l-1.543 4.396h3.116zm-1.177-2.137h2.414l4.182 10.656h-2.366l-.916-2.443h-4.323l-.93 2.443H22l4.154-10.656m10.482 8.98h1.2c1.787 0 3.512-1.33 3.512-3.65s-1.725-3.65-3.512-3.65h-1.2zm-2.14-8.98h2.918c3.267 0 6.154 1.098 6.154 5.328s-2.887 5.328-6.154 5.328h-2.918v-10.656m11.404.001h6.292v1.68H48.04v2.627h3.805v1.68H48.04v2.995h4.185v1.677H45.9V205.19m8.874-.003h3.42l2.535 8.074h.03l2.535-8.074h3.42v10.656H64.67v-8.792h-.03l-2.87 8.792h-2.047l-2.87-8.792-.03.03v8.762h-2.047v-10.656"/><path d="M69.386 205.188h2.14v10.656h-2.14v-10.656m4.812 0h6.3v1.68h-4.15v2.627h3.802v1.68h-3.802v2.995h4.185v1.677H74.2V205.19m12.414-.003H88.9l2.734 8.367h.03l2.706-8.367h2.122l-3.6 10.656h-2.628l-3.66-10.656m14-.61l-1.424-1.68h1.453l.98.992.977-.992h1.422l-1.422 1.68zm-2.35.6h6.292v1.68H100.4v2.627h3.802v1.68H100.4v2.995h4.182v1.677h-6.32V205.2m11.01 8.977h1.187c1.8 0 3.516-1.33 3.516-3.65s-1.727-3.65-3.516-3.65h-1.187zm-2.138-8.98h2.917c3.268 0 6.154 1.098 6.154 5.328s-2.885 5.328-6.154 5.328h-2.917v-10.656m20.138-.6l-1.42-1.68h1.45l.98.992.977-.992h1.42l-1.42 1.68zm3.65 11.115c-.78.183-1.62.335-2.43.335-3.45 0-5.846-1.724-5.846-5.33 0-3.645 2.232-5.695 5.846-5.695a7.04 7.04 0 0 1 2.414.443l-.154 1.804c-.807-.458-1.542-.567-2.305-.567-2.2 0-3.57 1.68-3.57 3.864 0 2.168 1.344 3.8 3.615 3.8.84 0 1.836-.18 2.34-.44l.1 1.785m3.9-5.954h.7c1.057 0 2.264-.153 2.264-1.482 0-1.28-1.193-1.388-2.264-1.388h-.7zm-2.138-4.55h2.307c2.3 0 5.024-.078 5.024 2.885 0 1.252-.84 2.288-2.2 2.473v.032c.584.044.92.62 1.133 1.097l1.705 4.168h-2.38L137 212.516c-.305-.795-.58-1.1-1.476-1.1h-.7v4.427h-2.138v-10.656M.02 147.448h3.666v7.856l6.595-7.856h4.503l-7.5 8.614 7.827 9.658h-4.8l-6.573-8.48h-.05v8.48H.02v-18.272"/><path d="M17.95 147.448h4.5l6.963 13.665h.054v-13.665h3.506v18.272H28.5l-6.992-13.662h-.052v13.662H17.95v-18.272m19.423 0h3.664v18.272h-3.664v-18.272m8.245 0h3.664v7.38h7.33v-7.38h3.666v18.272h-3.666v-8h-7.33v8h-3.664v-18.272m27.614 15.708c3.745 0 5.133-3.327 5.133-6.624 0-3.22-1.492-6.516-5.133-6.516s-5.128 3.296-5.128 6.516c0 3.297 1.387 6.624 5.128 6.624zm0-16.02c5.734 0 8.953 3.875 8.953 9.396s-3.167 9.503-8.953 9.503c-5.86 0-8.95-3.9-8.95-9.503s3.142-9.396 8.95-9.396m11.1.312h3.925l4.685 14.347h.052l4.635-14.347h3.638l-6.154 18.272H90.61l-6.28-18.272m19.79 0h4.503l6.964 13.665h.055v-13.665h3.508v18.272h-4.482l-6.984-13.662h-.055v13.662h-3.508v-18.272m26.99 3.665h-.055l-2.64 7.54h5.338zm-2.016-3.665h4.133l7.177 18.272h-4.06l-1.573-4.2h-7.403l-1.6 4.2h-3.794l7.12-18.272"/></svg>
