<?xml version="1.0" encoding="UTF-8"?><svg xmlns="http://www.w3.org/2000/svg" viewBox="0 0 1479 275"><path fill="#0f0" fill-rule="evenodd" d="M391.98 0c31.73 0 34.02.12 34.03 1.75 0 .96-5.85 49.34-13 107.5C405.85 167.41 400 215.22 400 215.5c0 .28-15.52.5-69 .5l.45-2.75c.25-1.51 6.14-49.55 13.09-106.75S357.35 1.94 357.56 1.25c.3-.97 8.07-1.25 34.42-1.25zM721 8.15c1.38-.07 7.67.32 14 .88s15.33 1.93 20 3.05c4.67 1.12 11.65 3.34 15.5 4.94 3.85 1.6 10.15 5.11 14 7.8 3.85 2.68 8.69 6.75 10.75 9.03 2.06 2.28 5.56 6.96 7.78 10.4 2.21 3.44 5.2 9.85 6.64 14.25 1.43 4.4 2.88 10.59 3.83 19.52l-74 .03-.65-2.78c-.35-1.52-1.93-4.31-3.5-6.19-1.57-1.88-4.65-4.24-6.85-5.23-2.2-.99-5.91-1.82-8.25-1.83-2.34-.01-5.49.46-7 1.05-1.51.58-3.77 2.05-5.03 3.25-1.58 1.52-2.26 3.31-2.25 5.93.02 2.91.65 4.21 2.78 5.81 1.51 1.14 5 2.69 7.75 3.45 2.75.77 13.55 2.36 24 3.55s23.27 3.23 28.5 4.53c5.23 1.31 13.1 4.14 17.5 6.29 5.12 2.51 9.98 5.88 13.5 9.36 3.02 2.99 6.94 8.1 8.7 11.35 1.77 3.25 4.13 9.51 5.26 13.91 1.45 5.6 2.06 11.14 2.06 18.5-.01 6.11-.65 13.01-1.54 16.5-.84 3.3-2.82 8.7-4.41 12-1.59 3.3-4.88 8.47-7.3 11.5-2.43 3.03-7.31 7.71-10.84 10.4-3.54 2.7-10.48 6.84-15.43 9.2-4.95 2.37-13.73 5.49-19.5 6.95-8.98 2.26-13.32 2.72-30 3.16-15.3.4-21.55.16-29-1.12-5.23-.89-13.1-2.75-17.5-4.12-4.4-1.38-11.37-4.41-15.5-6.74-4.12-2.33-9.67-6.03-12.33-8.23s-6.89-6.7-9.4-10c-2.52-3.3-6.03-9.15-7.8-13-1.78-3.85-3.96-9.93-4.84-13.5-.89-3.57-1.62-8.19-1.63-14l76.5-.04.75 4.02c.5 2.67 2.01 5.29 4.5 7.8 2.23 2.25 5.57 4.32 8.25 5.11 2.94.87 6.23 1.07 9.5.59 3.61-.52 5.77-1.53 7.75-3.6 1.93-2.02 2.75-3.93 2.75-6.38 0-2.6-.71-4.09-2.75-5.78-1.51-1.26-4.77-2.82-7.25-3.46-2.48-.65-12.37-2.09-22-3.19-9.62-1.1-20.65-2.66-24.5-3.47-3.85-.8-9.25-2.21-12-3.13-2.75-.92-8.11-3.32-11.9-5.32-4.4-2.33-8.94-5.84-12.5-9.68-3.08-3.32-6.84-8.61-8.35-11.75-1.51-3.15-3.46-8.76-4.34-12.47-1.16-4.95-1.48-10.21-1.19-19.75.31-10.23.88-14.38 2.68-19.5 1.25-3.58 3.92-9.2 5.94-12.49 2.01-3.29 5.91-8.27 8.66-11.06 2.75-2.79 7.92-7.05 11.5-9.46 3.58-2.42 9.88-5.82 14-7.56 4.13-1.74 11.33-4.13 16-5.31 4.67-1.18 12.77-2.53 18-2.99 5.23-.47 10.63-.91 12-.98zM113 11l-.61 2.25c-.34 1.24-4.16 13.39-8.5 27S96 65.22 96 65.5c0 .28 11.35.39 50.46 0l17.19-54 14.18-.25c7.79-.14 14.17-.03 14.17.25s-3.82 12.42-8.5 27-8.5 26.72-8.5 27c0 .28 8.1.5 36 .5v26l-44.5-.03L152 136h35v26l-43.23.5-17.27 53.54-28-.1 8.24-26.22c4.54-14.42 8.25-26.56 8.25-26.97.01-.41-11.24-.75-49.99-.75l-17.5 54.04-14.25-.02c-7.84-.01-14.08-.36-13.87-.77.21-.41 4.03-12.22 8.48-26.25 4.46-14.03 8.11-25.84 8.12-26.25.01-.41-8.08-.75-35.98-.75v-26l44.5.04 5.9-17.77C53.65 108.5 56.91 98.59 59 92H24V66l43.43-.5 8.27-26c4.55-14.3 8.49-26.56 8.76-27.25.36-.92 4.22-1.25 28.54-1.25zM80.63 113.25c-3.67 11.69-6.67 21.59-6.65 22 .01.41 11.16.76 24.77.78l24.75.02c10.66-32.2 13.92-42.11 14.12-42.8.3-.98-5.16-1.25-24.97-1.25H87.3l-6.67 21.25zM250.08 11H327l-.51 2.75c-.27 1.51-5.9 46.85-12.5 100.75-6.59 53.9-11.99 98.79-11.99 99.75 0 1.64-2.5 1.75-38.5 1.75-33.56 0-38.5-.19-38.5-1.5 0-.82 5.39-45.49 11.98-99.25 6.58-53.76 12.22-99.21 12.53-101l.57-3.25zM848 23h69v37h35v55h-35l-.03 18.25c-.02 17.38.08 18.42 2.27 21.75 1.27 1.93 3.87 4.29 5.78 5.25 1.99 1 5.73 1.75 8.73 1.75 2.89 0 7.95-.79 11.25-1.75s6.24-1.53 6.53-1.25c.29.28.51 12.99.47 56l-4.75.92c-2.61.51-8.58 1.47-13.25 2.13-5.22.75-14.49 1.03-24 .73-13.07-.41-16.75-.9-23.5-3.08-4.4-1.42-10.89-4.52-14.43-6.89-3.53-2.37-8.14-6.34-10.23-8.81-2.09-2.47-5.13-7.2-6.74-10.5-1.62-3.3-3.71-8.7-4.66-12-1.39-4.87-1.79-11.34-2.44-62.5h-20V60h20V23zm207 34.08c6.33-.06 15.44.58 20.25 1.41 4.81.83 12.46 2.87 17 4.54 4.54 1.66 11.17 4.78 14.75 6.92 3.58 2.14 9.16 6.29 12.4 9.22 3.25 2.93 7.83 8.03 10.18 11.33 2.36 3.3 5.62 8.92 7.25 12.5 1.64 3.58 3.79 9.42 4.78 13 1.37 4.94 1.82 10.23 1.85 22 .03 13.31-.29 16.63-2.27 23.5-1.28 4.4-4.2 11.55-6.5 15.89-2.33 4.37-7.08 11-10.69 14.89-3.58 3.86-9.2 8.83-12.5 11.05-3.3 2.22-9.15 5.53-13 7.34-3.85 1.81-10.6 4.29-15 5.5-6.9 1.9-10.62 2.22-27 2.27-16.81.05-19.98-.2-27.5-2.24-4.67-1.26-12.55-4.27-17.5-6.67-4.95-2.41-11.92-6.79-15.5-9.74-3.58-2.96-8.58-8.05-11.11-11.33-2.54-3.28-6.31-9.33-8.37-13.46-2.07-4.12-4.67-10.87-5.78-15-1.54-5.75-2.03-10.77-2.08-21.5-.05-10.48.39-15.76 1.76-21 1-3.85 3.25-10.15 5-14 1.75-3.85 4.73-9.25 6.62-12 1.9-2.75 5.7-7.25 8.45-10.01 2.76-2.75 7.03-6.42 9.51-8.14 2.48-1.72 7.65-4.7 11.5-6.61 3.85-1.92 9.48-4.29 12.5-5.26 3.03-.98 8.65-2.35 12.5-3.04 3.85-.69 12.17-1.3 18.5-1.36zm-11 65.47c-2.19 4.34-2.5 6.24-2.5 15.45 0 8.81.36 11.26 2.25 15.25 1.32 2.79 3.59 5.57 5.5 6.75 1.9 1.17 5.01 1.99 7.5 2 3.4 0 4.96-.65 7.81-3.25 2.23-2.04 4.14-5.11 5.13-8.25 1.13-3.6 1.46-7.66 1.17-14.5-.3-7.04-.94-10.54-2.47-13.5-1.14-2.2-3.6-5.03-5.48-6.28-1.97-1.31-4.89-2.26-6.91-2.24-1.92.01-4.85.84-6.5 1.82-1.65.99-4.12 4.03-5.5 6.75zm223-65.42c.83-.06 3.96.17 12.43 1.15l-.22 32.36c-.11 17.8-.55 32.35-.96 32.34-.41-.01-3.45-.73-6.75-1.6-4.09-1.08-8.23-1.42-13-1.05-5.34.42-8.06 1.21-11.44 3.36-3.12 1.97-5.29 4.45-10.12 13.81l.06 78.5h-69V60h69v5c0 2.75.34 4.98.75 4.96.41-.02 2.33-1.45 4.25-3.18 1.92-1.72 5.97-4.25 9-5.61 3.03-1.36 7.53-2.8 10-3.2 2.47-.41 5.17-.78 6-.84zM516 60l-.5 3.75c-.28 2.06-2.82 22.34-5.66 45.06-4.19 33.48-4.96 41.92-4.07 44.5.61 1.76 2.48 4.43 4.17 5.94 2.38 2.14 4.06 2.75 7.56 2.75 2.48 0 5.74-.63 7.25-1.4 1.51-.78 3.71-2.47 4.88-3.75 1.16-1.29 2.68-3.47 3.37-4.85.68-1.37 3.67-22.19 6.62-46.25C542.58 81.69 545 61.55 545 61c0-.65 12.17-1 69-1l-.49 3.75c-.27 2.06-2.75 22.2-5.52 44.75-2.76 22.55-5.71 43.7-6.56 47-.84 3.3-2.64 8.7-3.99 12-1.35 3.3-3.91 8.44-5.7 11.43-1.78 2.99-6.16 8.56-9.74 12.38-3.58 3.82-9.2 8.89-12.5 11.25-3.3 2.37-9.37 5.87-13.5 7.79-4.12 1.92-11.33 4.54-16 5.82-7.47 2.05-10.73 2.33-27 2.33-16.39 0-19.41-.26-26.5-2.32-4.4-1.28-11.6-4.19-16-6.48-5.5-2.85-10.19-6.35-15.02-11.18-4.37-4.37-8.4-9.66-10.7-14.02-2.03-3.85-4.61-10.6-5.74-15-1.36-5.29-2.06-11.14-2.05-17.25 0-5.09 2.26-27.47 5.01-49.75s5-40.95 5-41.5c0-.65 12.17-1 69-1zm849 0l.95 3.75c.53 2.06 4.86 19.5 9.64 38.75s8.96 35.32 9.3 35.71c.34.39 5-17.05 20.11-78.21h36.5c20.08 0 36.67.34 36.89.75.21.41-16.65 46.88-37.47 103.25-20.82 56.38-38.55 104.41-40.92 111h-36.5c-23.67 0-36.5-.35-36.5-1 0-.55 4.57-12.14 10.16-25.75s10.12-25.43 10.06-26.25c-.06-.82-13.18-37.05-29.15-80.5-15.98-43.45-29.05-79.56-29.06-80.25-.01-.98 8.25-1.25 75.99-1.25z"/></svg>
